# xmcd
#
# Track frame offsets:
#   150
#   19439
#   39838
#   58435
#   80566
#   96388
#   113951
#   130939
#   145769
#   161914
#   180586
#
# Disc length: 2720 seconds
#
# Revision: 0
# Processed by: cddbd v1.5.2PL0 Copyright (c) Steve Scherf et al.
# Submitted via: GXTranscoder 2.0.1939
#
DISCID=9d0a9e0b
DTITLE=Jojo - Mix
DYEAR=1900
DGENRE=Pop
TTITLE0=Umbrella-Rhianna
TTITLE1=Relax Take it easy-Kika
TTITLE2=From Yeterday
TTITLE3=Don't Matter
TTITLE4=What I've Done-Linking Park
TTITLE5=Nie wieder-Bushido
TTITLE6=Ich Komme
TTITLE7=The River
TTITLE8=Fairytale Gone Bad-Surise Avenue
TTITLE9=Tan
TTITLE10=just
EXTD=
EXTT0=
EXTT1=
EXTT2=
EXTT3=
EXTT4=
EXTT5=
EXTT6=
EXTT7=
EXTT8=
EXTT9=
EXTT10=
PLAYORDER=
